<?xml version="1.0" encoding="utf-8"?>
<!-- Generator: Adobe Illustrator 24.1.0, SVG Export Plug-In . SVG Version: 6.00 Build 0)  -->
<svg version="1.1" id="Calque_1" xmlns="http://www.w3.org/2000/svg" xmlns:xlink="http://www.w3.org/1999/xlink" x="0px" y="0px"
	 viewBox="0 0 1080 575.33" style="enable-background:new 0 0 1080 575.33;" xml:space="preserve">
<style type="text/css">
	.st0{fill:#0166FF;}
</style>
<g>
	<path class="st0" d="M1070.71,377.4V192.91c-0.05-41.74-34.06-75.75-75.82-75.81H616.63l-76.88,131.32l-76.56-126.31H174.22
		L64.97,0v124.59l-6.09,2.24c-29.65,10.93-49.58,39.5-49.59,71.1v184.49c0.05,41.75,34.07,75.77,75.83,75.82h378.26l76.88-131.21
		l76.57,126.2h288.96l109.25,122.1V450.85l6.08-2.25C1050.76,437.62,1070.69,409,1070.71,377.4z M440.28,417.94H85.11
		c-19.42-0.22-35.31-16.12-35.53-35.42l-0.01-184.59C49.8,178.51,65.69,162.62,85,162.4h20.25v-56.98l50.98,56.99h284.25
		l76.09,125.48L440.28,417.94z M1030.43,377.52c-0.22,19.31-16.11,35.2-35.42,35.42h-20.25v56.98l-50.98-56.98H639.53l-76.1-125.38
		l76.3-130.16h355.18c19.42,0.22,35.31,16.12,35.53,35.42l0.01,184.65L1030.43,377.52z"/>
	<g>
		<path d="M667.43,274.16c0,3.02-0.55,5.74-1.66,8.15c-1.11,2.42-2.61,4.46-4.53,6.14s-4.13,2.97-6.64,3.87
			c-2.52,0.91-5.15,1.36-7.9,1.36h-8.56v25.26h-15v-64.21h23.55c2.75,0,5.38,0.46,7.9,1.36c2.51,0.91,4.73,2.18,6.64,3.82
			c1.91,1.65,3.42,3.67,4.53,6.09C666.87,268.42,667.43,271.14,667.43,274.16z M652.53,274.16c0-2.42-0.84-4.21-2.51-5.39
			c-1.68-1.17-3.52-1.76-5.54-1.76h-6.34v14.39h6.34c2.01,0,3.85-0.57,5.54-1.71C651.69,278.55,652.53,276.71,652.53,274.16z"/>
		<path d="M712.42,318.95l-17.31-25.26h-5.54v25.26h-15v-64.21h23.95c2.75,0,5.37,0.46,7.85,1.36c2.48,0.91,4.68,2.18,6.6,3.82
			c1.91,1.65,3.43,3.67,4.58,6.09c1.14,2.42,1.71,5.13,1.71,8.15c0,3.82-0.96,7.14-2.87,9.96c-1.91,2.82-4.24,4.87-6.99,6.14
			l20.43,28.68h-17.41V318.95z M704.26,274.16c0-2.42-0.84-4.21-2.51-5.39c-1.68-1.17-3.52-1.76-5.54-1.76h-6.64v14.39h6.64
			c2.01,0,3.86-0.57,5.54-1.71C703.43,278.55,704.26,276.71,704.26,274.16z"/>
		<path d="M800.38,286.74c0,5.17-0.97,9.83-2.92,13.99s-4.53,7.7-7.75,10.62c-3.22,2.92-6.91,5.17-11.07,6.75
			c-4.16,1.57-8.46,2.36-12.89,2.36s-8.72-0.79-12.88-2.36c-4.16-1.58-7.84-3.83-11.02-6.75c-3.19-2.92-5.76-6.46-7.7-10.62
			c-1.95-4.16-2.92-8.82-2.92-13.99s0.97-9.81,2.92-13.94c1.95-4.12,4.51-7.63,7.7-10.52c3.18-2.88,6.86-5.12,11.02-6.69
			c4.16-1.57,8.45-2.36,12.88-2.36s8.72,0.79,12.89,2.36c4.16,1.58,7.85,3.81,11.07,6.69c3.22,2.89,5.8,6.39,7.75,10.52
			C799.41,276.93,800.38,281.57,800.38,286.74z M784.58,286.74c0-3.02-0.52-5.74-1.56-8.15c-1.04-2.42-2.45-4.5-4.23-6.24
			c-1.78-1.74-3.79-3.09-6.04-4.02c-2.25-0.94-4.58-1.41-7-1.41s-4.74,0.47-6.99,1.41s-4.24,2.28-5.99,4.02s-3.14,3.82-4.18,6.24
			c-1.04,2.42-1.56,5.13-1.56,8.15s0.52,5.75,1.56,8.2s2.43,4.55,4.18,6.29c1.74,1.74,3.73,3.08,5.99,4.02s4.58,1.41,6.99,1.41
			c2.42,0,4.75-0.47,7-1.41s4.26-2.28,6.04-4.02c1.77-1.74,3.19-3.84,4.23-6.29S784.58,289.76,784.58,286.74z"/>
		<path d="M828.56,306.16c0,4.7-0.62,8.76-1.86,12.18c-1.24,3.42-2.92,6.29-5.03,8.61c-2.12,2.31-4.53,4.14-7.25,5.48
			s-5.55,2.25-8.5,2.72l-6.74-10.77c4.56-0.81,8-2.71,10.32-5.69c2.31-2.98,3.47-7.63,3.47-13.94v-50.02h15.6L828.56,306.16
			L828.56,306.16z"/>
		<path d="M840.64,318.95v-64.21h37.44v12.78h-21.84v12.78h17.81v12.98h-17.81v12.88h24.66v12.78L840.64,318.95L840.64,318.95z"/>
		<path d="M938.57,270.74c-1.68-1.08-3.77-2.02-6.29-2.82c-2.51-0.81-5.52-1.21-9.01-1.21c-2.89,0-5.62,0.47-8.2,1.41
			s-4.82,2.3-6.69,4.08c-1.88,1.78-3.37,3.91-4.47,6.39c-1.11,2.48-1.66,5.24-1.66,8.26c0,3.02,0.55,5.75,1.66,8.2
			s2.61,4.56,4.53,6.34c1.91,1.78,4.2,3.13,6.84,4.08s5.48,1.41,8.5,1.41c3.49,0,6.56-0.35,9.21-1.06c2.65-0.7,4.85-1.62,6.6-2.77
			l-1.31,13.99c-1.81,1.08-4.1,1.91-6.84,2.52c-2.75,0.6-6.07,0.91-9.96,0.91c-4.23,0-8.42-0.72-12.58-2.16
			c-4.16-1.44-7.9-3.57-11.23-6.39c-3.32-2.82-6.02-6.32-8.1-10.52s-3.12-9.04-3.12-14.54c0-5.57,1.04-10.45,3.12-14.65
			c2.08-4.2,4.78-7.7,8.1-10.52c3.32-2.82,7.06-4.94,11.23-6.34c4.16-1.41,8.35-2.12,12.58-2.12c4.02,0,7.58,0.37,10.67,1.11
			c3.08,0.74,5.6,1.68,7.55,2.82L938.57,270.74z"/>
		<path d="M978.63,267.22v51.73h-15.6v-51.83H943.6v-12.38h54.35v12.48H978.63z"/>
	</g>
	<path d="M1079.15,335.35l-29.37-184.95l-4.4-27.49c-2.86-18.28-12.84-34.33-27.98-45.35c-12.14-8.79-26.3-13.4-40.88-13.4
		c-3.63,0-7.33,0.35-10.95,0.91l-308.16,51.28l-53.72,8.93l-19.26,3.21c-1.81,0.28-3.21,1.6-3.7,3.35l-20.09,66.91l-22.26,74.23
		l-0.04,0.12l-85.96-162.12l-7.58-14.2c-0.95-1.8-2.97-2.86-4.98-2.44l-98.42,16.63l-188.32,31.84L68.55,73.95L46.2,55.67
		c-1.54-1.22-3.76-1.32-5.46-0.37c-1.75,0.95-2.6,2.86-2.28,4.87l10.59,66.38l5.09,32.15c-15.52,3.5-29.19,12.24-39.04,24.84
		c-0.69,0.69-1.17,1.32-1.7,2.12C2.39,200.77-2.01,219.2,0.85,237.48L30.2,422.46l4.4,27.44c2.91,18.28,12.82,34.38,27.97,45.34
		c12.13,8.79,26.27,13.4,40.89,13.4c3.66,0,7.31-0.26,10.91-0.85l308.14-51.28l53.77-9.01l19.23-3.13c1.8-0.32,3.23-1.64,3.71-3.39
		l20.13-66.9l22.25-74.22l0.03-0.09l86,162.12l7.53,14.16c0.98,1.81,2.93,2.86,4.95,2.44l98.44-16.6l188.3-31.88l84.56,68.86
		l22.39,18.28c1.54,1.26,3.7,1.33,5.44,0.42c1.74-0.98,2.58-2.93,2.3-4.88l-10.6-66.42l-5.09-32.09c15.49-3.56,29.16-12.28,39-24.91
		c0.7-0.63,1.19-1.32,1.74-2.09C1077.61,372.05,1082.01,353.63,1079.15,335.35z M491.01,435.38l-378.17,63.04
		c-15.79,2.49-31.57-1.38-44.66-10.91c-13.08-9.48-21.61-23.36-24.1-39.04L10.33,236.05c-1.75-11.18-0.37-22.35,4.03-32.58
		c1.7-4.34,3.97-8.32,6.78-12.18c9.48-12.98,23.41-21.61,39.09-24.1c1.27-0.16,2.38-0.85,3.18-1.91c0.74-0.95,1.06-2.28,0.85-3.55
		L49.8,70.98l98.9,80.52c1.17,0.95,2.49,1.32,3.87,1.06l285.47-48.31L535.3,287.8L491.01,435.38z M1065.61,369.39
		c-1.67,4.33-3.98,8.3-6.77,12.14c-9.49,13.05-23.44,21.63-39.14,24.14c-1.26,0.14-2.37,0.84-3.14,1.88
		c-0.77,0.98-1.05,2.3-0.84,3.56l14.44,90.77l-98.93-80.58c-1.12-0.91-2.44-1.33-3.84-1.05L641.92,468.6l-97.25-183.55l44.3-147.56
		L967.1,74.42c15.77-2.44,31.6,1.33,44.72,10.88c13.05,9.49,21.56,23.37,24.07,39.07l33.77,212.44
		C1071.41,347.98,1070.01,359.14,1065.61,369.39z"/>
	<g>
		<path d="M166.02,300.53c0,3.08-0.57,5.87-1.71,8.35s-2.72,4.58-4.73,6.29c-2.01,1.71-4.35,3.02-6.99,3.92
			c-2.65,0.91-5.48,1.36-8.5,1.36h-24.26v-64.21h21.54c2.55,0,4.95,0.4,7.2,1.21c2.25,0.8,4.24,1.93,5.99,3.37
			c1.74,1.44,3.12,3.22,4.12,5.33c1.01,2.12,1.51,4.48,1.51,7.1c0,0.94-0.12,1.95-0.35,3.02c-0.24,1.07-0.57,2.1-1,3.07
			c-0.44,0.97-0.99,1.86-1.66,2.67c-0.67,0.8-1.45,1.44-2.32,1.91c1.34,0.4,2.68,1.14,4.02,2.22c1.35,1.07,2.55,2.35,3.63,3.82
			c1.07,1.47,1.92,3.12,2.57,4.93C165.7,296.7,166.02,298.58,166.02,300.53z M145.99,274.26c0-2.35-0.72-4.03-2.16-5.03
			c-1.44-1.01-3.07-1.51-4.88-1.51h-4.93v12.98h4.93c1.81,0,3.44-0.49,4.88-1.46C145.26,278.27,145.99,276.6,145.99,274.26z
			 M150.92,300.53c0-2.82-0.97-4.91-2.92-6.29s-4.13-2.06-6.54-2.06h-7.44v16.61h7.44c1.21,0,2.38-0.17,3.52-0.5
			c1.14-0.34,2.15-0.84,3.02-1.51c0.87-0.67,1.58-1.53,2.12-2.57C150.65,303.16,150.92,301.93,150.92,300.53z"/>
		<path d="M230.33,298.51c0,3.55-0.74,6.78-2.21,9.66c-1.47,2.89-3.47,5.34-5.99,7.35c-2.51,2.01-5.47,3.57-8.86,4.68
			s-6.99,1.66-10.82,1.66s-7.42-0.55-10.77-1.66c-3.36-1.11-6.29-2.66-8.81-4.68c-2.51-2.01-4.51-4.46-5.99-7.35
			c-1.48-2.88-2.21-6.1-2.21-9.66v-42.27h15.6v40.86c0,3.29,1.12,5.95,3.37,8s5.25,3.07,9.01,3.07s6.78-1.02,9.06-3.07
			c2.28-2.05,3.42-4.71,3.42-8v-40.86h15.2L230.33,298.51L230.33,298.51z"/>
		<path d="M297.46,288.35c0,5.03-0.93,9.52-2.77,13.49c-1.85,3.96-4.35,7.31-7.5,10.06c-3.16,2.75-6.81,4.87-10.97,6.34
			s-8.56,2.21-13.19,2.21H241.4v-64.21h21.64c4.63,0,9.02,0.74,13.19,2.21c4.16,1.48,7.81,3.59,10.97,6.34s5.65,6.1,7.5,10.06
			C296.54,278.82,297.46,283.31,297.46,288.35z M281.86,288.35c0-3.16-0.55-5.89-1.66-8.2c-1.11-2.32-2.6-4.26-4.48-5.84
			c-1.88-1.57-4.06-2.75-6.54-3.52s-5.14-1.15-7.95-1.15h-4.83v37.44h4.83c2.81,0,5.47-0.38,7.95-1.15s4.66-1.95,6.54-3.52
			c1.88-1.58,3.37-3.54,4.48-5.89C281.31,294.15,281.86,291.43,281.86,288.35z"/>
		<path d="M362.58,288.35c0,5.03-0.93,9.52-2.77,13.49c-1.85,3.96-4.35,7.31-7.5,10.06c-3.16,2.75-6.81,4.87-10.97,6.34
			s-8.56,2.21-13.19,2.21h-21.64v-64.21h21.64c4.63,0,9.02,0.74,13.19,2.21c4.16,1.48,7.81,3.59,10.97,6.34s5.65,6.1,7.5,10.06
			C361.66,278.82,362.58,283.31,362.58,288.35z M346.98,288.35c0-3.16-0.55-5.89-1.66-8.2c-1.11-2.32-2.6-4.26-4.48-5.84
			c-1.88-1.57-4.06-2.75-6.54-3.52s-5.14-1.15-7.95-1.15h-4.83v37.44h4.83c2.81,0,5.47-0.38,7.95-1.15s4.66-1.95,6.54-3.52
			c1.88-1.58,3.37-3.54,4.48-5.89C346.43,294.15,346.98,291.43,346.98,288.35z"/>
		<path d="M404.95,291.77v28.68h-15.1v-28.38l-23.95-35.83h16.61l10.57,15.5c0.74,1.14,1.53,2.38,2.36,3.72
			c0.84,1.35,1.59,2.65,2.27,3.93h0.2c0.73-1.27,1.54-2.6,2.42-3.98c0.87-1.37,1.68-2.6,2.42-3.67l10.57-15.5h15.5L404.95,291.77z"
			/>
	</g>
</g>
</svg>
