<svg xmlns="http://www.w3.org/2000/svg" viewBox="0 0 260 260">
    <defs>
        <style>.cls-1{fill:#154eff;}.cls-2{fill:#fff;}</style>
    </defs>
    <g>
        <rect class="cls-1" rx="30" ry="30" width="260" height="260"/>
        <path class="cls-2"
              d="M56.94,204a3.5,3.5,0,0,1-3.5-3.5V157.35a31,31,0,0,0-1-7.54L28.06,62.76a3.49,3.49,0,0,1,3.37-4.44h23a3.5,3.5,0,0,1,3.45,2.85c3.79,20.31,8.05,29.84,9.77,47.36h.9C70.8,91.88,75.17,81.9,78.86,61.2a3.5,3.5,0,0,1,3.45-2.88h21.34A3.49,3.49,0,0,1,107,62.76L82.12,152l-.06.23a25.77,25.77,0,0,0-.64,6.16v42.07a3.5,3.5,0,0,1-3.51,3.5Z"/>
        <path class="cls-2"
              d="M118.78,83.09H95.57a3.5,3.5,0,0,1-3.5-3.5V61.82a3.5,3.5,0,0,1,3.5-3.5h88.54a3.51,3.51,0,0,1,3.51,3.5V79.59a3.51,3.51,0,0,1-3.51,3.5H153.76a3.51,3.51,0,0,0-3.5,3.51V200.49a3.5,3.5,0,0,1-3.5,3.5h-21a3.5,3.5,0,0,1-3.51-3.5V86.6A3.5,3.5,0,0,0,118.78,83.09Z"/>
        <path class="cls-2"
              d="M174.17,58.32h53.42a3.5,3.5,0,0,1,3.5,3.5V79.59a3.5,3.5,0,0,1-3.5,3.5H202.23a3.51,3.51,0,0,0-3.51,3.51v26.18a3.51,3.51,0,0,0,3.51,3.51h23.53a3.5,3.5,0,0,1,3.5,3.5v17.77a3.5,3.5,0,0,1-3.5,3.5H202.23a3.51,3.51,0,0,0-3.51,3.5v55.93a3.49,3.49,0,0,1-3.5,3.5H174.17a3.5,3.5,0,0,1-3.5-3.5V61.82A3.5,3.5,0,0,1,174.17,58.32Z"/>
    </g>
</svg>
