<?xml version="1.0" standalone="no"?>
<!DOCTYPE svg PUBLIC "-//W3C//DTD SVG 20010904//EN"
 "http://www.w3.org/TR/2001/REC-SVG-20010904/DTD/svg10.dtd">
<svg version="1.0" xmlns="http://www.w3.org/2000/svg"
 width="700.000000pt" height="700.000000pt" viewBox="0 0 700.000000 700.000000"
 preserveAspectRatio="xMidYMid meet">
<metadata>
Created by potrace 1.14, written by Peter Selinger 2001-2017
</metadata>
<g transform="translate(0.000000,700.000000) scale(0.100000,-0.100000)"
fill="#000000" stroke="none">
<path d="M678 6990 c-309 -53 -562 -280 -650 -585 l-23 -80 0 -2825 0 -2825
23 -78 c81 -280 289 -488 569 -569 l78 -23 2825 0 2825 0 78 23 c280 81 488
289 569 569 l23 78 0 2825 0 2825 -23 78 c-80 276 -284 483 -562 569 l-75 23
-2805 1 c-1543 1 -2826 -2 -2852 -6z m847 -1582 c23 -20 31 -45 61 -188 19
-91 65 -293 104 -450 64 -262 109 -488 126 -632 4 -40 11 -58 20 -58 8 0 14 9
14 19 0 51 58 326 130 616 43 176 93 390 110 475 17 85 36 168 42 183 24 61
-117 57 2048 57 l1982 0 29 -29 29 -29 0 -272 c0 -167 -4 -279 -10 -291 -26
-47 -45 -49 -435 -49 l-367 0 -29 -30 -30 -29 3 -390 3 -390 23 -23 c22 -23
24 -23 383 -28 l361 -5 24 -28 24 -28 0 -270 c0 -166 -4 -278 -10 -290 -25
-46 -47 -49 -410 -49 l-342 0 -29 -29 -29 -29 0 -787 0 -787 -29 -29 -29 -29
-317 0 c-353 0 -356 0 -375 69 -6 23 -10 578 -10 1609 l0 1572 -244 0 -243 0
-27 -25 -26 -24 0 -1548 c0 -1014 -4 -1561 -10 -1584 -19 -68 -22 -69 -374
-69 l-315 0 -28 24 -28 24 -5 1577 -5 1577 -28 24 -29 24 -251 -2 -251 -3
-258 -925 c-142 -509 -262 -952 -268 -985 -6 -35 -10 -314 -10 -668 l0 -609
-29 -29 -29 -29 -317 0 -317 0 -29 29 -29 29 0 619 c0 340 -5 647 -10 681 -5
35 -160 605 -346 1267 -313 1119 -336 1206 -324 1235 24 58 32 59 402 60 335
0 337 0 363 -22z"/>
</g>
</svg>
